<svg id="Group_10635" data-name="Group 10635" xmlns="http://www.w3.org/2000/svg" xmlns:xlink="http://www.w3.org/1999/xlink" width="67.981" height="47.834" viewBox="0 0 67.981 47.834">
  <defs>
    <clipPath id="clip-path">
      <rect id="Rectangle_8010" data-name="Rectangle 8010" width="9.373" height="10.544" fill="#fff"/>
    </clipPath>
    <clipPath id="clip-path-5">
      <rect id="Rectangle_8010-5" data-name="Rectangle 8010" width="10.544" height="10.544" fill="#fff"/>
    </clipPath>
  </defs>
  <g id="Group_10402" data-name="Group 10402" transform="translate(0.001 0)">
    <path id="Path_64980" data-name="Path 64980" d="M21.312,0h2.633V16.255H21.312Z" transform="translate(-6.43)" fill="#2c2929"/>
    <path id="Path_64981" data-name="Path 64981" d="M35.081,13.379a2.553,2.553,0,0,1-2.747,2.747c-1.6,0-1.832-1.488-1.832-2.29v-6.3H27.87v6.182a4.834,4.834,0,0,0,1.374,3.663,4.143,4.143,0,0,0,3.091,1.145,4,4,0,0,0,2.747-.916v.916h2.633V7.541H35.081Z" transform="translate(-8.409 -2.275)" fill="#2c2929"/>
    <path id="Path_64982" data-name="Path 64982" d="M47.367,1.8H44.734V5.81H42.788V8.329h1.946V16.8h2.633V8.329h1.946V5.81H47.367Z" transform="translate(-12.91 -0.544)" fill="#2c2929"/>
    <path id="Path_64983" data-name="Path 64983" d="M60.572,15.112a3.614,3.614,0,0,1-2.175.8,3.037,3.037,0,0,1-3.091-3.205A2.944,2.944,0,0,1,58.4,9.617a3.022,3.022,0,0,1,2.175.8l.343.343,1.832-1.717L62.289,8.7A5.87,5.87,0,0,0,58.4,7.213a5.477,5.477,0,0,0-5.609,5.609A5.477,5.477,0,0,0,58.4,18.432a5.87,5.87,0,0,0,3.892-1.488l.458-.343-1.832-1.832Z" transform="translate(-15.928 -2.176)" fill="#2c2929"/>
    <path id="Path_64984" data-name="Path 64984" d="M76.867,6.182a3.633,3.633,0,0,0-2.862-1.145,3.443,3.443,0,0,0-2.518.916V0H68.854V16.255h2.633V10.188c0-2.518,1.717-2.747,2.4-2.747,1.6,0,1.488,1.488,1.488,2.289v6.411h2.633v-6.3A5.214,5.214,0,0,0,76.867,6.182Z" transform="translate(-20.775)" fill="#2c2929"/>
    <path id="Path_64985" data-name="Path 64985" d="M60.1,16.131A1.832,1.832,0,1,0,58.271,14.3,1.832,1.832,0,0,0,60.1,16.131Z" transform="translate(-17.582 -3.762)" fill="#ef4335"/>
    <path id="Path_64986" data-name="Path 64986" d="M11.218,12.495a5.368,5.368,0,0,1-3.778,1.488c-2.862,0-4.922-2.29-4.922-5.38s2.061-5.38,5.037-5.38a5.387,5.387,0,0,1,3.778,1.6l.343.343,1.717-1.717-.343-.343A7.709,7.709,0,0,0,7.555.818C3.205.7,0,4.138,0,8.6s3.205,7.9,7.441,7.9a7.518,7.518,0,0,0,5.495-2.289l.343-.343-1.717-1.717Z" transform="translate(0 -0.246)" fill="#2c2929"/>
  </g>
  <g id="Group_10410" data-name="Group 10410" transform="translate(0 25.775)">
    <g id="Group_10405" data-name="Group 10405" transform="translate(0 0)">
      <path id="Path_65003" data-name="Path 65003" d="M5.472.959,6.643,4.553h3.791L7.367,6.774l1.171,3.594L5.472,8.147,2.405,10.368,3.576,6.774.51,4.553H4.3Z" transform="translate(-0.41 -0.612)" fill="#c4c4c4"/>
      <g id="Group_10404" data-name="Group 10404" transform="translate(0 0)" clip-path="url(#clip-path)">
        <path id="Path_65004" data-name="Path 65004" d="M5.477.959,6.648,4.553h3.791L7.372,6.774l1.171,3.594L5.477,8.147,2.41,10.368,3.582,6.774.515,4.553H4.306Z" transform="translate(-0.411 -0.612)" fill="#e05e5f"/>
      </g>
    </g>
    <g id="Group_10406" data-name="Group 10406" transform="translate(14.764 0)">
      <path id="Path_65003-2" data-name="Path 65003" d="M5.472.959,6.643,4.553h3.791L7.367,6.774l1.171,3.594L5.472,8.147,2.405,10.368,3.576,6.774.51,4.553H4.3Z" transform="translate(-0.51 -0.612)" fill="#c4c4c4"/>
      <g id="Group_10404-2" data-name="Group 10404" transform="translate(0.467 0)" clip-path="url(#clip-path)">
        <path id="Path_65004-2" data-name="Path 65004" d="M5.477.959,6.648,4.553h3.791L7.372,6.774l1.171,3.594L5.477,8.147,2.41,10.368,3.582,6.774.515,4.553H4.306Z" transform="translate(-0.979 -0.612)" fill="#e05e5f"/>
      </g>
    </g>
    <g id="Group_10407" data-name="Group 10407" transform="translate(29.291 0)">
      <path id="Path_65003-3" data-name="Path 65003" d="M5.472.959,6.643,4.553h3.791L7.367,6.774l1.171,3.594L5.472,8.147,2.405,10.368,3.576,6.774.51,4.553H4.3Z" transform="translate(-0.373 -0.612)" fill="#c4c4c4"/>
      <g id="Group_10404-3" data-name="Group 10404" transform="translate(0 0)" clip-path="url(#clip-path)">
        <path id="Path_65004-3" data-name="Path 65004" d="M5.477.959,6.648,4.553h3.791L7.372,6.774l1.171,3.594L5.477,8.147,2.41,10.368,3.582,6.774.515,4.553H4.306Z" transform="translate(-0.375 -0.612)" fill="#e05e5f"/>
      </g>
    </g>
    <g id="Group_10408" data-name="Group 10408" transform="translate(43.35 0)">
      <path id="Path_65003-4" data-name="Path 65003" d="M5.472.959,6.643,4.553h3.791L7.367,6.774l1.171,3.594L5.472,8.147,2.405,10.368,3.576,6.774.51,4.553H4.3Z" transform="translate(-0.467 -0.612)" fill="#c4c4c4"/>
      <g id="Group_10404-4" data-name="Group 10404" transform="translate(0 0)" clip-path="url(#clip-path)">
        <path id="Path_65004-4" data-name="Path 65004" d="M5.477.959,6.648,4.553h3.791L7.372,6.774l1.171,3.594L5.477,8.147,2.41,10.368,3.582,6.774.515,4.553H4.306Z" transform="translate(-0.468 -0.612)" fill="#e05e5f"/>
      </g>
    </g>
    <g id="Group_10409" data-name="Group 10409" transform="translate(57.409 0)">
      <path id="Path_65003-5" data-name="Path 65003" d="M5.472.959,6.643,4.553h3.791L7.367,6.774l1.171,3.594L5.472,8.147,2.405,10.368,3.576,6.774.51,4.553H4.3Z" transform="translate(0.138 -0.612)" fill="#c4c4c4"/>
      <g id="Group_10404-5" data-name="Group 10404" transform="translate(0 0)" clip-path="url(#clip-path-5)">
        <path id="Path_65004-5" data-name="Path 65004" d="M5.477.959,6.648,4.553h3.791L7.372,6.774l1.171,3.594L5.477,8.147,2.41,10.368,3.582,6.774.515,4.553H4.306Z" transform="translate(0.137 -0.612)" fill="#e05e5f"/>
      </g>
    </g>
  </g>
  <text id="REVIEWED_ON_CLUTCH" data-name="REVIEWED ON CLUTCH" transform="translate(0.001 45.835)" fill="#00337f" font-size="6" font-family="SegoeUI, Segoe UI"><tspan x="0" y="0">REVIEWED ON CLUTCH</tspan></text>
</svg>
