<svg xmlns="http://www.w3.org/2000/svg" xmlns:xlink="http://www.w3.org/1999/xlink" width="112.486" height="47.834" viewBox="0 0 112.486 47.834">
  <defs>
    <clipPath id="clip-path">
      <rect id="Rectangle_8010" data-name="Rectangle 8010" width="9.776" height="10.474" fill="#fff"/>
    </clipPath>
  </defs>
  <g id="good-firms" transform="translate(0)">
    <path id="Path_64987" data-name="Path 64987" d="M6.893,6.074s-.931-.1-.931.759v3.8H12.11v1.139a.54.54,0,0,1-.559.569H5.962v4.935h6.707a4.962,4.962,0,0,0,4.1-4.935V6.074ZM16.581,0H4.471C.093,1.063,0,4.764,0,4.764V17.271H4.658V5.884a1.154,1.154,0,0,1,.931-1.138H16.582V0ZM32.567,13.692c-.319.22-.556.381-.723.484a12.8,12.8,0,0,1-1.694.909,5.354,5.354,0,0,1-2.056.484,7.287,7.287,0,0,1-5.238-1.994,6.628,6.628,0,0,1-2.1-5.027,7.418,7.418,0,0,1,1.889-5.072,5.888,5.888,0,0,1,4.6-2.14,7.528,7.528,0,0,1,2.389.411A6.568,6.568,0,0,1,32.29,3.314L31.081,4.692a4.629,4.629,0,0,0-1.959-1.128A6.637,6.637,0,0,0,27.191,3.3,3.957,3.957,0,0,0,24.01,4.868a5.818,5.818,0,0,0-1.278,3.767,4.8,4.8,0,0,0,1.458,3.592A5.087,5.087,0,0,0,27.9,13.662a3.708,3.708,0,0,0,1.917-.6c.542-.425.82-.631.834-.646v-3H26.594l.583-1.876h5.39ZM44.82,10.027a5.3,5.3,0,0,1-1.5,3.767,4.991,4.991,0,0,1-7.293.03A5.168,5.168,0,0,1,34.5,10.042a5.514,5.514,0,0,1,1.459-3.811,4.6,4.6,0,0,1,3.57-1.612,5,5,0,0,1,3.806,1.554A5.3,5.3,0,0,1,44.82,10.027Zm-1.9.03a3.494,3.494,0,0,0-.958-2.492,3.1,3.1,0,0,0-2.375-1.026,2.917,2.917,0,0,0-2.264,1.056,3.527,3.527,0,0,0-.931,2.418,3.45,3.45,0,0,0,.945,2.434,3.074,3.074,0,0,0,2.348,1.026,3.013,3.013,0,0,0,2.265-1.012,3.341,3.341,0,0,0,.973-2.4Zm13.989-.03a5.3,5.3,0,0,1-1.5,3.767,4.991,4.991,0,0,1-7.293.03,5.171,5.171,0,0,1-1.528-3.782,5.514,5.514,0,0,1,1.459-3.811,4.6,4.6,0,0,1,3.57-1.612,5,5,0,0,1,3.806,1.554A5.305,5.305,0,0,1,56.905,10.027Zm-1.9.03a3.494,3.494,0,0,0-.958-2.492,3.1,3.1,0,0,0-2.375-1.026A2.916,2.916,0,0,0,49.4,7.594a3.527,3.527,0,0,0-.931,2.418,3.447,3.447,0,0,0,.945,2.434,3.071,3.071,0,0,0,2.347,1.026A3.013,3.013,0,0,0,54.03,12.46a3.341,3.341,0,0,0,.973-2.4ZM68.088,15.1l-1.75.279V13.633l-.375.439a4.6,4.6,0,0,1-1.112.792,4.38,4.38,0,0,1-1.9.425,4.517,4.517,0,0,1-3.473-1.554,5.323,5.323,0,0,1-1.416-3.708,5.578,5.578,0,0,1,1.4-3.811,4.391,4.391,0,0,1,3.431-1.583,4.8,4.8,0,0,1,2.028.4,3.443,3.443,0,0,1,1.042.748c.1.132.195.278.292.41V1.614l1.86-.279Zm-1.639-4.94a3.583,3.583,0,0,0-1.014-2.594,3.1,3.1,0,0,0-2.32-1.07,2.979,2.979,0,0,0-2.347,1.012,3.5,3.5,0,0,0-.848,2.36,3.808,3.808,0,0,0,.875,2.579,2.8,2.8,0,0,0,2.223,1.012,3.4,3.4,0,0,0,2.362-.938,3.089,3.089,0,0,0,1.07-2.36ZM77.909,3.52H72.7V7.169h4.042V9.045H72.7v6.039l-2.028.308V1.628h6.834Zm4.182-1.071-1.25,1.627L79.646,2.449,80.91.837ZM81.716,15.1l-1.861.264V5.176l1.861-.293V15.1Zm8.4-10.318-.876,2.081a2.375,2.375,0,0,0-.347-.029,3.451,3.451,0,0,0-.542.044,2.091,2.091,0,0,0-.583.206A2.312,2.312,0,0,0,86.759,8.21a4.671,4.671,0,0,0-.487,2.1v4.778l-1.861.308V5.176l1.723-.322V6.978c.222-.367.458-.733.68-1.114a2.762,2.762,0,0,1,1.112-.822,8.5,8.5,0,0,1,2.2-.263ZM103.983,15.1l-1.861.279V8.386a1.994,1.994,0,0,0-.417-1.407,1.825,1.825,0,0,0-2.723.4,2.389,2.389,0,0,0-.348,1.2v6.508l-1.861.352V8.429a2.171,2.171,0,0,0-.4-1.406,1.38,1.38,0,0,0-1.112-.484h-.18a1.473,1.473,0,0,0-1.417.85,3.5,3.5,0,0,0-.333,1.627v6.068l-1.93.352V5.176l1.736-.308v1.3a4.006,4.006,0,0,1,.57-.733,2.424,2.424,0,0,1,1.736-.719,2.982,2.982,0,0,1,1.653.367,3.142,3.142,0,0,1,.931,1.2,3.032,3.032,0,0,1,2.737-1.568A2.955,2.955,0,0,1,103.3,5.835a4.5,4.5,0,0,1,.681,2.712Zm8.5-3.092a3.048,3.048,0,0,1-.958,2.316,3.336,3.336,0,0,1-2.418.909,3.819,3.819,0,0,1-1.987-.528,3.755,3.755,0,0,1-1.333-1.216l1.306-1.2a2.607,2.607,0,0,0,.263.351,2.334,2.334,0,0,0,1.75.777,1.565,1.565,0,0,0,1.112-.381,1.339,1.339,0,0,0,.4-1.056q0-.768-.959-1.055-1.9-.593-2.042-.66a3.558,3.558,0,0,1-1.265-1,2.936,2.936,0,0,1-.444-1.7,2.894,2.894,0,0,1,.945-2.2A3.15,3.15,0,0,1,109.1,4.5a3.693,3.693,0,0,1,1.82.455,3.135,3.135,0,0,1,1.195,1.012L111,7.213a4.051,4.051,0,0,0-.541-.469,2.209,2.209,0,0,0-1.277-.484,1.631,1.631,0,0,0-.959.263,1.142,1.142,0,0,0-.445.968,1.007,1.007,0,0,0,.431.909,5.869,5.869,0,0,0,1.612.527,3.765,3.765,0,0,1,1.93,1.056A2.73,2.73,0,0,1,112.486,12.006Z" transform="translate(0 0)" fill="#3a7af3"/>
    <g id="Group_10411" data-name="Group 10411" transform="translate(0.001 25.836)">
      <g id="Group_10405" data-name="Group 10405" transform="translate(0 0)">
        <path id="Path_65003" data-name="Path 65003" d="M5.472.959,6.643,4.553h3.791L7.367,6.774l1.171,3.594L5.472,8.147,2.405,10.368,3.576,6.774.51,4.553H4.3Z" transform="translate(-0.411 -0.674)" fill="#c4c4c4"/>
        <g id="Group_10404" data-name="Group 10404" transform="translate(0 0)" clip-path="url(#clip-path)">
          <path id="Path_65004" data-name="Path 65004" d="M5.477.959,6.648,4.553h3.791L7.372,6.774l1.171,3.594L5.477,8.147,2.41,10.368,3.582,6.774.515,4.553H4.306Z" transform="translate(-0.412 -0.674)" fill="#e05e5f"/>
        </g>
      </g>
      <g id="Group_10406" data-name="Group 10406" transform="translate(14.664 0)">
        <path id="Path_65003-2" data-name="Path 65003" d="M5.472.959,6.643,4.553h3.791L7.367,6.774l1.171,3.594L5.472,8.147,2.405,10.368,3.576,6.774.51,4.553H4.3Z" transform="translate(-0.411 -0.674)" fill="#c4c4c4"/>
        <g id="Group_10404-2" data-name="Group 10404" transform="translate(0 0)" clip-path="url(#clip-path)">
          <path id="Path_65004-2" data-name="Path 65004" d="M5.477.959,6.648,4.553h3.791L7.372,6.774l1.171,3.594L5.477,8.147,2.41,10.368,3.582,6.774.515,4.553H4.306Z" transform="translate(-0.412 -0.674)" fill="#e05e5f"/>
        </g>
      </g>
      <g id="Group_10407" data-name="Group 10407" transform="translate(29.328 0)">
        <path id="Path_65003-3" data-name="Path 65003" d="M5.472.959,6.643,4.553h3.791L7.367,6.774l1.171,3.594L5.472,8.147,2.405,10.368,3.576,6.774.51,4.553H4.3Z" transform="translate(-0.411 -0.674)" fill="#c4c4c4"/>
        <g id="Group_10404-3" data-name="Group 10404" transform="translate(0 0)" clip-path="url(#clip-path)">
          <path id="Path_65004-3" data-name="Path 65004" d="M5.477.959,6.648,4.553h3.791L7.372,6.774l1.171,3.594L5.477,8.147,2.41,10.368,3.582,6.774.515,4.553H4.306Z" transform="translate(-0.412 -0.674)" fill="#e05e5f"/>
        </g>
      </g>
      <g id="Group_10408" data-name="Group 10408" transform="translate(43.293 0)">
        <path id="Path_65003-4" data-name="Path 65003" d="M5.472.959,6.643,4.553h3.791L7.367,6.774l1.171,3.594L5.472,8.147,2.405,10.368,3.576,6.774.51,4.553H4.3Z" transform="translate(-0.411 -0.674)" fill="#c4c4c4"/>
        <g id="Group_10404-4" data-name="Group 10404" transform="translate(0 0)" clip-path="url(#clip-path)">
          <path id="Path_65004-4" data-name="Path 65004" d="M5.477.959,6.648,4.553h3.791L7.372,6.774l1.171,3.594L5.477,8.147,2.41,10.368,3.582,6.774.515,4.553H4.306Z" transform="translate(-0.412 -0.674)" fill="#e05e5f"/>
        </g>
      </g>
      <g id="Group_10409" data-name="Group 10409" transform="translate(57.957 0)">
        <path id="Path_65003-5" data-name="Path 65003" d="M5.472.959,6.643,4.553h3.791L7.367,6.774l1.171,3.594L5.472,8.147,2.405,10.368,3.576,6.774.51,4.553H4.3Z" transform="translate(-0.411 -0.674)" fill="#c4c4c4"/>
        <g id="Group_10404-5" data-name="Group 10404" transform="translate(0 0)" clip-path="url(#clip-path)">
          <path id="Path_65004-5" data-name="Path 65004" d="M5.477.959,6.648,4.553h3.791L7.372,6.774l1.171,3.594L5.477,8.147,2.41,10.368,3.582,6.774.515,4.553H4.306Z" transform="translate(-0.412 -0.674)" fill="#e05e5f"/>
        </g>
      </g>
    </g>
    <text id="TOP_RATED_ON_GOODFIRMS" data-name="TOP RATED ON GOODFIRMS" transform="translate(0.077 45.835)" fill="#00337f" font-size="6" font-family="SegoeUI, Segoe UI"><tspan x="0" y="0">TOP RATED ON GOODFIRMS</tspan></text>
  </g>
</svg>
