<svg xmlns="http://www.w3.org/2000/svg" width="128.312" height="22.226" viewBox="0 0 128.312 22.226">
  <g id="top-developers" transform="translate(0)">
    <path id="Path_64988" data-name="Path 64988" d="M56.2,19.2h7.5v1.26H60.553v9.222H59.236V20.46H56.2Z" transform="translate(-24.008 -13.701)" fill="#2c2c2c"/>
    <path id="Path_64989" data-name="Path 64989" d="M70.737,24.1c2.635,0,3.437.974,3.437,4.01,0,2.807-.8,3.781-3.437,3.781S67.3,30.859,67.3,28.11C67.3,24.959,68.159,24.1,70.737,24.1Zm0,6.53c1.432,0,2.119-.172,2.119-2.578,0-2.578-.516-2.75-2.119-2.75-1.489,0-2.119.229-2.119,2.75C68.618,30.458,69.3,30.63,70.737,30.63Z" transform="translate(-28.749 -15.794)" fill="#2c2c2c"/>
    <path id="Path_64990" data-name="Path 64990" d="M82.057,24.115h1.031l.286.8A6.182,6.182,0,0,1,86.067,24c2.062,0,2.52,1.948,2.52,3.838,0,2-.344,3.952-2.52,3.952a7.859,7.859,0,0,1-2.75-.573v4.3H82v-11.4Zm3.9,6.53c.859,0,1.317-.516,1.317-2.75,0-1.833-.458-2.635-1.317-2.635a5.7,5.7,0,0,0-2.578.63V30.3A9.055,9.055,0,0,0,85.952,30.645Z" transform="translate(-35.029 -15.751)" fill="#2c2c2c"/>
    <path id="Path_64991" data-name="Path 64991" d="M96.9,19.2h4.124c3.208,0,3.781,3.036,3.781,5.27,0,2.578-1.031,5.213-3.781,5.213H96.9Zm4.067,9.165c1.776,0,2.463-1.776,2.463-3.952,0-2.979-.917-4.01-2.463-4.01h-2.75v7.962Z" transform="translate(-41.394 -13.701)" fill="#002c5f"/>
    <path id="Path_64992" data-name="Path 64992" d="M116.021,24.1c1.948,0,3.036.172,3.036,2.692,0,1.146-.63,1.776-2.062,1.776h-2.979c0,1.661.4,2,1.489,2a21.546,21.546,0,0,0,3.437-.172v.974a13.5,13.5,0,0,1-3.723.4c-1.948,0-2.52-.974-2.52-3.9C112.641,24.558,113.615,24.1,116.021,24.1Zm.859,3.38q.859,0,.859-.687c0-1.375-.229-1.489-1.661-1.489-1.489,0-2.062,0-2.062,2.177Z" transform="translate(-48.142 -15.794)" fill="#002c5f"/>
    <path id="Path_64993" data-name="Path 64993" d="M126.732,24.2l2.234,5.843L131.2,24.2h1.432L129.6,31.819h-1.375L125.3,24.2Z" transform="translate(-53.526 -15.837)" fill="#002c5f"/>
    <path id="Path_64994" data-name="Path 64994" d="M142.88,24.1c1.948,0,3.036.172,3.036,2.692,0,1.146-.63,1.776-2.062,1.776h-3.036c0,1.661.4,2,1.489,2a21.546,21.546,0,0,0,3.437-.172v.974a13.5,13.5,0,0,1-3.723.4c-1.948,0-2.52-.974-2.52-3.9C139.5,24.558,140.474,24.1,142.88,24.1Zm.859,3.38q.859,0,.859-.687c0-1.375-.229-1.489-1.661-1.489-1.489,0-2.062,0-2.062,2.177Z" transform="translate(-59.592 -15.794)" fill="#002c5f"/>
    <path id="Path_64995" data-name="Path 64995" d="M153.3,17.9h1.317v8.42c0,1.2.344,1.489.8,1.6,0,0,1.088.286,1.2.286v.917h-1.375c-1.146,0-1.948-.687-1.948-2.692V17.9Z" transform="translate(-65.487 -13.146)" fill="#002c5f"/>
    <path id="Path_64996" data-name="Path 64996" d="M163.437,24.1c2.635,0,3.437.974,3.437,4.01,0,2.807-.8,3.781-3.437,3.781S160,30.859,160,28.11C160,24.959,160.917,24.1,163.437,24.1Zm0,6.53c1.432,0,2.119-.172,2.119-2.578,0-2.578-.516-2.75-2.119-2.75-1.489,0-2.119.229-2.119,2.75C161.375,30.458,162.062,30.63,163.437,30.63Z" transform="translate(-68.349 -15.794)" fill="#002c5f"/>
    <path id="Path_64997" data-name="Path 64997" d="M174.857,24.115h1.031l.286.8A6.182,6.182,0,0,1,178.867,24c2.062,0,2.52,1.948,2.52,3.838,0,2-.344,3.952-2.52,3.952a7.86,7.86,0,0,1-2.75-.573v4.3H174.8v-11.4Zm3.838,6.53c.859,0,1.317-.516,1.317-2.75,0-1.833-.458-2.635-1.317-2.635a5.7,5.7,0,0,0-2.578.63V30.3A9.649,9.649,0,0,0,178.7,30.645Z" transform="translate(-74.671 -15.751)" fill="#002c5f"/>
    <path id="Path_64998" data-name="Path 64998" d="M192.08,24.1c1.948,0,3.036.172,3.036,2.692,0,1.146-.63,1.776-2.062,1.776h-3.036c0,1.661.4,2,1.489,2a21.546,21.546,0,0,0,3.437-.172v.974a13.5,13.5,0,0,1-3.723.4c-1.948,0-2.52-.974-2.52-3.9C188.7,24.558,189.674,24.1,192.08,24.1Zm.859,3.38q.859,0,.859-.687c0-1.375-.229-1.489-1.661-1.489-1.489,0-2.062,0-2.062,2.177Z" transform="translate(-80.609 -15.794)" fill="#002c5f"/>
    <path id="Path_64999" data-name="Path 64999" d="M202.5,24.157h1.031l.344.974a4.692,4.692,0,0,1,2.692-1.031,2.543,2.543,0,0,1,1.031.115v1.317a5.594,5.594,0,0,0-1.088-.057,4.152,4.152,0,0,0-2.635.859V31.89h-1.318V24.157Z" transform="translate(-86.504 -15.794)" fill="#002c5f"/>
    <path id="Path_65000" data-name="Path 65000" d="M213,26.048c0-1.2.516-1.948,2-1.948a27.009,27.009,0,0,1,3.9.286V25.3h-3.723c-.8,0-.859.286-.859.745v.573c0,.687.344.745.859.745h2.177a1.762,1.762,0,0,1,1.948,1.89V30a1.681,1.681,0,0,1-1.89,1.89,38.723,38.723,0,0,1-4.067-.286v-.917h3.9a.649.649,0,0,0,.745-.687v-.63c0-.458-.172-.687-.745-.687h-2.177c-1.375,0-2.062-.458-2.062-1.948Z" transform="translate(-90.989 -15.794)" fill="#002c5f"/>
    <path id="Path_65001" data-name="Path 65001" d="M20.622,9.6H1.89A1.749,1.749,0,0,0,0,11.147V30.279a1.749,1.749,0,0,0,1.89,1.547H20.622a1.749,1.749,0,0,0,1.89-1.547V11.147c.057-.859-.8-1.547-1.89-1.547Z" transform="translate(0 -9.6)" fill="#002c5f" fill-rule="evenodd"/>
    <path id="Path_65002" data-name="Path 65002" d="M18.917,19.233A5.692,5.692,0,0,0,15.079,17.4H6.2v2.864H8.491l-.057,9.452H11.7V20.207h3.38a2.65,2.65,0,0,1,1.89,1.2,4.879,4.879,0,0,1,0,4.239,2.214,2.214,0,0,1-1.6,1.088l-2.692.057v2.864h2.349a6.5,6.5,0,0,0,2.234-.458,4.157,4.157,0,0,0,1.776-1.375,6.781,6.781,0,0,0-.115-8.592Z" transform="translate(-2.649 -12.932)" fill="#fff" fill-rule="evenodd"/>
  </g>
</svg>
